<svg width="28" height="28" viewBox="0 0 28 28" fill="none" xmlns="http://www.w3.org/2000/svg">
<path d="M23.9229 19.9594C23.9229 20.3514 23.8358 20.7543 23.6507 21.1463C23.4655 21.5383 23.226 21.9085 22.9102 22.2569C22.3767 22.8449 21.7887 23.2696 21.1244 23.5418C20.4711 23.8141 19.7633 23.9556 19.0011 23.9556C17.8904 23.9556 16.7035 23.6943 15.4513 23.1607C14.1991 22.6272 12.9469 21.9085 11.7055 21.0047C10.4533 20.0901 9.26643 19.0774 8.13399 17.9558C7.01243 16.8234 5.99976 15.6365 5.09599 14.3952C4.2031 13.1538 3.48443 11.9125 2.96176 10.6821C2.4391 9.44072 2.17776 8.25383 2.17776 7.12139C2.17776 6.38094 2.30843 5.67317 2.56976 5.01983C2.8311 4.35561 3.24488 3.74583 3.82199 3.20139C4.51888 2.51539 5.2811 2.17783 6.08688 2.17783C6.39177 2.17783 6.69665 2.24317 6.96888 2.37383C7.25199 2.5045 7.50243 2.7005 7.69843 2.98361L10.2247 6.54428C10.4207 6.8165 10.5622 7.06694 10.6602 7.3065C10.7582 7.53517 10.8127 7.76383 10.8127 7.97072C10.8127 8.23206 10.7364 8.49339 10.584 8.74383C10.4424 8.99428 10.2355 9.25561 9.97421 9.51694L9.14665 10.3772C9.02688 10.4969 8.97243 10.6385 8.97243 10.8127C8.97243 10.8998 8.98332 10.9761 9.0051 11.0632C9.03777 11.1503 9.07043 11.2156 9.09221 11.2809C9.28821 11.6403 9.62576 12.1085 10.1049 12.6747C10.5949 13.2409 11.1175 13.8181 11.6838 14.3952C12.2718 14.9723 12.838 15.5058 13.4151 15.9958C13.9813 16.4749 14.4495 16.8016 14.8198 16.9976C14.8742 17.0194 14.9395 17.0521 15.0158 17.0847C15.1029 17.1174 15.19 17.1283 15.288 17.1283C15.4731 17.1283 15.6147 17.0629 15.7344 16.9432L16.562 16.1265C16.8342 15.8543 17.0955 15.6474 17.346 15.5167C17.5964 15.3643 17.8469 15.2881 18.1191 15.2881C18.326 15.2881 18.5438 15.3316 18.7833 15.4296C19.0229 15.5276 19.2733 15.6692 19.5455 15.8543L23.1498 18.4132C23.4329 18.6092 23.6289 18.8378 23.7487 19.1101C23.8575 19.3823 23.9229 19.6545 23.9229 19.9594Z" stroke="#76BC21" stroke-width="1.83168" stroke-miterlimit="10"/>
<path d="M20.1444 9.80007C20.1444 9.14674 19.6326 8.14496 18.8704 7.32829C18.1735 6.57696 17.248 5.98896 16.3333 5.98896" stroke="#76BC21" stroke-width="1.83168" stroke-linecap="round" stroke-linejoin="round"/>
<path d="M23.9555 9.80007C23.9555 5.58607 20.5473 2.17785 16.3333 2.17785" stroke="#76BC21" stroke-width="1.83168" stroke-linecap="round" stroke-linejoin="round"/>
</svg>
