<svg width="26" height="26" viewBox="0 0 26 26" fill="none" xmlns="http://www.w3.org/2000/svg">
<path d="M13 3.25C18.3625 3.25 22.75 7.6375 22.75 13C22.75 18.3625 18.3625 22.75 13 22.75C7.6375 22.75 3.25 18.3625 3.25 13C3.25 7.6375 7.6375 3.25 13 3.25ZM13 1.625C6.74375 1.625 1.625 6.74375 1.625 13C1.625 19.2563 6.74375 24.375 13 24.375C19.2563 24.375 24.375 19.2563 24.375 13C24.375 6.74375 19.2563 1.625 13 1.625Z" fill="white"/>
<path d="M19.5 12.1875H13.8125V6.5H12.1875V12.1875H6.5V13.8125H12.1875V19.5H13.8125V13.8125H19.5V12.1875Z" fill="white"/>
</svg>
