<svg width="26" height="27" viewBox="0 0 26 27" fill="none" xmlns="http://www.w3.org/2000/svg">
<path d="M13 3.53821C18.3625 3.53821 22.75 7.92571 22.75 13.2882C22.75 18.6507 18.3625 23.0382 13 23.0382C7.6375 23.0382 3.25 18.6507 3.25 13.2882C3.25 7.92571 7.6375 3.53821 13 3.53821ZM13 1.91321C6.74375 1.91321 1.625 7.03196 1.625 13.2882C1.625 19.5445 6.74375 24.6632 13 24.6632C19.2562 24.6632 24.375 19.5445 24.375 13.2882C24.375 7.03196 19.2562 1.91321 13 1.91321Z" fill="#0077FF"/>
<path d="M19.5 12.4757H13.8125V6.78821H12.1875V12.4757H6.5V14.1007H12.1875V19.7882H13.8125V14.1007H19.5V12.4757Z" fill="#0077FF"/>
</svg>
