<svg width="215" height="53" viewBox="0 0 215 53" fill="none" xmlns="http://www.w3.org/2000/svg">
<g clip-path="url(#clip0_92_88)">
<path d="M0 0.288208V52.3517H44.2016V0.288208H0ZM39.1013 47.3131H5.10028V5.32677H39.1013V47.3131Z" fill="#003595"/>
<path d="M34.0008 10.3656H10.2003V42.2748H34.0008V10.3656Z" fill="#76BC21"/>
<path d="M57.4029 19.7788C58.2419 20.5676 59.2356 21.1787 60.384 21.6119C61.5323 22.0477 62.7845 22.263 64.1356 22.263C65.4868 22.263 66.7061 22.0477 67.8392 21.6119C68.9723 21.1787 69.9584 20.5702 70.7974 19.7888C71.6365 19.01 72.2905 18.0834 72.762 17.0141C73.236 15.9423 73.4718 14.7803 73.4718 13.5257C73.4718 12.271 73.236 11.0915 72.762 10.0373C72.2905 8.98296 71.634 8.06139 70.7974 7.27255C69.9584 6.48371 68.9723 5.87267 67.8392 5.43944C66.7061 5.0037 65.4639 4.78833 64.1128 4.78833C62.7617 4.78833 61.5399 5.0037 60.3992 5.43944C59.2584 5.87267 58.2648 6.48371 57.4181 7.27255C56.5714 8.06139 55.9149 8.98797 55.451 10.0498C54.9871 11.1116 54.7564 12.271 54.7564 13.5257C54.7564 14.7803 54.9871 15.9398 55.451 17.0016C55.9149 18.0634 56.5663 18.99 57.4079 19.7788H57.4029ZM59.1621 11.3294C59.4308 10.6708 59.8085 10.0974 60.2978 9.61654C60.787 9.13321 61.3523 8.76258 61.9962 8.50465C62.64 8.24671 63.3448 8.11899 64.1103 8.11899C64.8758 8.11899 65.5856 8.24921 66.2371 8.50465C66.8886 8.76258 67.4539 9.13321 67.9355 9.61654C68.4146 10.0974 68.7898 10.6708 69.0585 11.3294C69.3272 11.9906 69.4615 12.7218 69.4615 13.5257C69.4615 14.3295 69.3272 15.0633 69.0585 15.7244C68.7898 16.383 68.4121 16.9565 67.9228 17.4373C67.4361 17.9206 66.8683 18.2913 66.2244 18.5492C65.5806 18.8072 64.8758 18.9349 64.1103 18.9349C63.3448 18.9349 62.6375 18.8072 61.986 18.5492C61.332 18.2913 60.7667 17.9206 60.2876 17.4373C59.806 16.9565 59.4334 16.378 59.1646 15.7119C58.8959 15.0433 58.7616 14.317 58.7616 13.5257C58.7616 12.7343 58.8959 11.9906 59.1646 11.3294H59.1621Z" fill="#003595"/>
<path d="M91.4294 5.07642H87.2518L82.765 11.908H79.9208V5.07642H75.9866V21.9751H79.9208V15.1686H82.6484L87.1023 21.9751H91.5992L85.8399 13.2378L91.4294 5.07642Z" fill="#003595"/>
<path d="M107.739 7.27255C106.9 6.48371 105.914 5.87267 104.781 5.43944C103.648 5.0037 102.405 4.78833 101.054 4.78833C99.7032 4.78833 98.4814 5.0037 97.3407 5.43944C96.1999 5.87267 95.2062 6.48371 94.3596 7.27255C93.5129 8.06139 92.8564 8.98797 92.3925 10.0498C91.9286 11.1116 91.6979 12.271 91.6979 13.5257C91.6979 14.7803 91.9286 15.9398 92.3925 17.0016C92.8564 18.0634 93.5079 18.99 94.3494 19.7788C95.1885 20.5676 96.1822 21.1787 97.3305 21.6119C98.4788 22.0477 99.7311 22.263 101.082 22.263C102.433 22.263 103.653 22.0477 104.786 21.6119C105.919 21.1787 106.905 20.5702 107.744 19.7888C108.583 19.01 109.237 18.0834 109.709 17.0141C110.183 15.9423 110.418 14.7803 110.418 13.5257C110.418 12.271 110.183 11.0915 109.709 10.0373C109.237 8.98296 108.581 8.06139 107.744 7.27255H107.739ZM106.003 15.7219C105.734 16.3805 105.356 16.954 104.867 17.4348C104.38 17.9181 103.812 18.2888 103.168 18.5467C102.525 18.8047 101.82 18.9324 101.054 18.9324C100.289 18.9324 99.5815 18.8047 98.9301 18.5467C98.276 18.2888 97.7108 17.9181 97.2317 17.4348C96.75 16.954 96.3774 16.3755 96.1087 15.7094C95.84 15.0433 95.7056 14.3145 95.7056 13.5232C95.7056 12.7318 95.84 11.9881 96.1087 11.3269C96.3774 10.6683 96.7551 10.0948 97.2443 9.61403C97.7336 9.13071 98.2989 8.76008 98.9427 8.50214C99.5866 8.2442 100.291 8.11649 101.057 8.11649C101.822 8.11649 102.532 8.24671 103.184 8.50214C103.835 8.76008 104.4 9.13071 104.882 9.61403C105.361 10.0948 105.736 10.6683 106.005 11.3269C106.274 11.9881 106.408 12.7193 106.408 13.5232C106.408 14.327 106.274 15.0608 106.005 15.7219H106.003Z" fill="#003595"/>
<path d="M116.938 15.0459H124.71V21.9751H128.667V5.07642H124.71V11.7377H116.938V5.07642H112.981V21.9751H116.938V15.0459Z" fill="#003595"/>
<path d="M148.143 21.9751V5.07642H144.183V11.7377H136.414V5.07642H132.457V21.9751H136.414V15.0459H144.183V21.9751H148.143Z" fill="#003595"/>
<path d="M172.798 5.07642H168.864V21.9751H172.798V5.07642Z" fill="#003595"/>
<path d="M165.003 11.9932C163.88 11.0841 162.283 10.6284 160.214 10.6284H155.864V5.07642H151.93V21.9751H159.652C161.852 21.9751 163.573 21.4768 164.82 20.4776C166.068 19.4809 166.689 18.0159 166.689 16.0826C166.689 14.2645 166.126 12.9022 165.003 11.9932ZM161.827 18.3289C161.241 18.8273 160.44 19.0777 159.431 19.0777H155.864V13.5233H159.431C160.458 13.5233 161.261 13.7286 161.839 14.1393C162.417 14.55 162.706 15.2212 162.706 16.1552C162.706 17.0893 162.412 17.8281 161.827 18.3289Z" fill="#003595"/>
<path d="M188.464 21.9751H192.373V5.07642H188.656L180.496 16.0826V5.07642H176.562V21.9751H180.301L188.464 10.9915V21.9751Z" fill="#003595"/>
<path d="M180.874 3.02584C181.632 3.66949 182.824 3.99257 184.454 3.99257C186.084 3.99257 187.255 3.66949 188.02 3.02584C188.786 2.38219 189.176 1.47306 189.194 0.298462H186.482C186.466 0.876997 186.286 1.31528 185.944 1.61331C185.602 1.91135 185.105 2.05911 184.454 2.05911C183.802 2.05911 183.285 1.91135 182.95 1.61331C182.616 1.31528 182.441 0.876997 182.423 0.298462H179.711C179.726 1.47306 180.114 2.38219 180.872 3.02584H180.874Z" fill="#003595"/>
<path d="M71.3426 30.2194H67.165L62.6807 37.051H59.834V30.2194H55.8998V47.1181H59.834V40.309H62.5616L67.018 47.1181H71.5124L65.753 38.3807L71.3426 30.2194Z" fill="#003595"/>
<path d="M87.6545 32.4155C86.8155 31.6267 85.8294 31.0156 84.6963 30.5824C83.5631 30.1466 82.321 29.9313 80.9699 29.9313C79.6188 29.9313 78.397 30.1466 77.2562 30.5824C76.1155 31.0156 75.1218 31.6267 74.2752 32.4155C73.4285 33.2043 72.772 34.1309 72.3081 35.1927C71.8442 36.2545 71.6135 37.414 71.6135 38.6686C71.6135 39.9233 71.8442 41.0827 72.3081 42.1445C72.772 43.2063 73.4234 44.1329 74.265 44.9217C75.1041 45.7106 76.0978 46.3216 77.2461 46.7549C78.3944 47.1906 79.6467 47.406 80.9978 47.406C82.3489 47.406 83.5682 47.1906 84.7013 46.7549C85.8344 46.3216 86.8205 45.7131 87.6596 44.9318C88.4987 44.1529 89.1527 43.2264 89.6242 42.1571C90.0982 41.0852 90.3339 39.9233 90.3339 38.6686C90.3339 37.414 90.0982 36.2345 89.6242 35.1802C89.1527 34.1259 88.4961 33.2043 87.6596 32.4155H87.6545ZM85.9181 40.8649C85.6494 41.5235 85.2717 42.0969 84.7824 42.5778C84.2957 43.0611 83.7279 43.4317 83.084 43.6897C82.4402 43.9476 81.7355 44.0753 80.9699 44.0753C80.2044 44.0753 79.4971 43.9476 78.8456 43.6897C78.1916 43.4317 77.6263 43.0611 77.1472 42.5778C76.6656 42.0969 76.293 41.5185 76.0243 40.8523C75.7556 40.1837 75.6212 39.4575 75.6212 38.6661C75.6212 37.8748 75.7556 37.131 76.0243 36.4699C76.293 35.8113 76.6707 35.2378 77.1599 34.757C77.6492 34.2737 78.2144 33.903 78.8583 33.6451C79.5022 33.3871 80.2069 33.2594 80.9724 33.2594C81.738 33.2594 82.4478 33.3897 83.0993 33.6451C83.7507 33.903 84.316 34.2737 84.7977 34.757C85.2768 35.2378 85.6519 35.8113 85.9206 36.4699C86.1893 37.131 86.3237 37.8623 86.3237 38.6661C86.3237 39.47 86.1893 40.2037 85.9206 40.8649H85.9181Z" fill="#003595"/>
<path d="M104.623 36.8807H96.8539V30.2194H92.8943V47.1181H96.8539V40.1888H104.623V47.1181H108.583V30.2194H104.623V36.8807Z" fill="#003595"/>
<path d="M110.611 33.4073H116.061V47.1181H119.97V33.4073H125.443V30.2194H110.611V33.4073Z" fill="#003595"/>
<path d="M131.38 41.2256V30.2194H127.446V47.1181H131.185L139.347 36.1344V47.1181H143.256V30.2194H139.542L131.38 41.2256Z" fill="#003595"/>
<path d="M158.747 36.8807H150.977V30.2194H147.02V47.1181H150.977V40.1888H158.747V47.1181H162.706V30.2194H158.747V36.8807Z" fill="#003595"/>
<path d="M170.428 40.0686H178.37V37.0259H170.428V33.3572H179.422V30.2194H166.496V47.1181H179.739V43.9802H170.428V40.0686Z" fill="#003595"/>
<path d="M194.18 36.8807H186.408V30.2194H182.451V47.1181H186.408V40.1888H194.18V47.1181H198.137V30.2194H194.18V36.8807Z" fill="#003595"/>
<path d="M214.999 30.2194H200.168V33.4073H205.615V47.1181H209.524V33.4073H214.999V30.2194Z" fill="#003595"/>
</g>
<defs>
<clipPath id="clip0_92_88">
<rect width="215" height="52.0635" fill="white" transform="translate(0 0.288208)"/>
</clipPath>
</defs>
</svg>
